<svg xmlns="http://www.w3.org/2000/svg" xml:space="preserve" width="2048" height="2048" style="shape-rendering:geometricPrecision;text-rendering:geometricPrecision;image-rendering:optimizeQuality;fill-rule:evenodd;clip-rule:evenodd"><defs><style>.fil0,.fil1{fill:#212121;fill-rule:nonzero}.fil1{fill:#66bb6a}</style></defs><g id="Layer_x0020_1"><path class="fil0" d="M1792 897.307c0-13.254-10.746-24-24-24s-24 10.746-24 24v841.116H304V897.307c0-13.254-10.746-24-24-24s-24 10.746-24 24v865.116c0 13.254 10.746 24 24 24h1488c13.254 0 24-10.746 24-24V897.307z"/><path class="fil0" d="m317.651 897.308 706.351 580.772 706.349-580.772L1024 316.535 317.651 897.308zm706.351 611.729-15.188 18.469L266.447 917.12a24.05 24.05 0 0 1-4.984-4.57c-8.418-10.238-6.941-25.363 3.296-33.78l.056.068 742.404-610.418c8.642-8.473 22.465-9.24 32.024-1.38l-15.242 18.538 15.188-18.469 742.367 610.387a24.05 24.05 0 0 1 4.984 4.57c8.418 10.237 6.942 25.363-3.296 33.78l-.056-.068-742.404 610.417c-8.642 8.473-22.464 9.24-32.024 1.38l15.242-18.538z"/><path class="fil0" d="M446.326 1053.8c0 13.254 10.746 24 24 24s24-10.746 24-24V886.706h1059.35v167.095c0 13.254 10.746 24 24 24s24-10.746 24-24V862.706c0-13.254-10.746-24-24-24H470.326c-13.254 0-24 10.746-24 24V1053.8z"/><path class="fil1" d="M608 967.999h832V1016H608zM704 1096h640v48H704zM852.047 1224h343.903v48H852.047z"/><path class="fil0" d="m719.281 1426.47-271.126 224-30.562-36.94 271.126-224zM1354.32 1389.53l271.13 224-30.56 36.94-271.13-224z"/></g><path style="fill:none" d="M0 0h2048v2048H0z"/></svg>