<svg data-name="Layer 1" xmlns="http://www.w3.org/2000/svg" viewBox="0 0 128 128"><path d="M83.172 41.128a1.75 1.75 0 0 0-2.25 2.68A26.32 26.32 0 0 1 90.357 64a1.75 1.75 0 0 0 3.5 0 29.8 29.8 0 0 0-10.685-22.872z"/><path d="M64 40.143A23.857 23.857 0 1 0 87.857 64 23.884 23.884 0 0 0 64 40.143zm0 44.215A20.357 20.357 0 1 1 84.357 64 20.38 20.38 0 0 1 64 84.357z"/><path d="M122.55 54.882a1.751 1.751 0 0 0-1.73-1.482h-16.64a41.166 41.166 0 0 0-4.28-10.319l11.763-11.764a1.749 1.749 0 0 0 .176-2.27 59.2 59.2 0 0 0-12.887-12.89 1.753 1.753 0 0 0-2.27.176L84.919 28.1A41.166 41.166 0 0 0 74.6 23.819V7.18a1.751 1.751 0 0 0-1.482-1.73 59.968 59.968 0 0 0-18.236 0A1.751 1.751 0 0 0 53.4 7.18v16.64a41.166 41.166 0 0 0-10.319 4.28L31.317 16.333a1.751 1.751 0 0 0-2.27-.176 59.2 59.2 0 0 0-12.89 12.891 1.749 1.749 0 0 0 .176 2.27L28.1 43.081A41.166 41.166 0 0 0 23.819 53.4H7.18a1.751 1.751 0 0 0-1.73 1.482 59.72 59.72 0 0 0 0 18.236A1.751 1.751 0 0 0 7.18 74.6h16.64a41.166 41.166 0 0 0 4.28 10.319L16.333 96.683a1.749 1.749 0 0 0-.176 2.27 59.2 59.2 0 0 0 12.891 12.891 1.75 1.75 0 0 0 2.27-.176L43.081 99.9a41.166 41.166 0 0 0 10.319 4.281v16.64a1.751 1.751 0 0 0 1.481 1.729 59.72 59.72 0 0 0 18.236 0 1.751 1.751 0 0 0 1.483-1.73v-16.64a41.166 41.166 0 0 0 10.319-4.28l11.764 11.763a1.751 1.751 0 0 0 2.27.176 59.2 59.2 0 0 0 12.891-12.891 1.749 1.749 0 0 0-.176-2.27L99.9 84.919a41.166 41.166 0 0 0 4.281-10.319h16.64a1.751 1.751 0 0 0 1.729-1.481 59.72 59.72 0 0 0 0-18.236zM119.3 71.1h-16.492a1.751 1.751 0 0 0-1.707 1.362 37.675 37.675 0 0 1-4.886 11.79 1.751 1.751 0 0 0 .243 2.171l11.66 11.66a55.657 55.657 0 0 1-10.035 10.035l-11.66-11.66a1.752 1.752 0 0 0-2.171-.243 37.675 37.675 0 0 1-11.79 4.886 1.751 1.751 0 0 0-1.362 1.707V119.3a56.632 56.632 0 0 1-14.2 0v-16.492a1.751 1.751 0 0 0-1.362-1.707 37.675 37.675 0 0 1-11.79-4.886 1.749 1.749 0 0 0-2.171.243l-11.66 11.66a55.657 55.657 0 0 1-10.035-10.035l11.66-11.66a1.751 1.751 0 0 0 .243-2.171 37.675 37.675 0 0 1-4.885-11.79 1.751 1.751 0 0 0-1.708-1.362H8.7a56.327 56.327 0 0 1 0-14.2h16.492a1.751 1.751 0 0 0 1.708-1.362 37.675 37.675 0 0 1 4.886-11.79 1.751 1.751 0 0 0-.243-2.171l-11.66-11.66a55.657 55.657 0 0 1 10.034-10.035l11.66 11.66a1.75 1.75 0 0 0 2.171.243 37.675 37.675 0 0 1 11.79-4.885 1.751 1.751 0 0 0 1.362-1.708V8.7a56.632 56.632 0 0 1 14.2 0v16.492a1.751 1.751 0 0 0 1.362 1.708 37.675 37.675 0 0 1 11.79 4.886 1.752 1.752 0 0 0 2.171-.243l11.66-11.66a55.657 55.657 0 0 1 10.035 10.035l-11.66 11.66a1.751 1.751 0 0 0-.243 2.171 37.675 37.675 0 0 1 4.886 11.79 1.751 1.751 0 0 0 1.707 1.362H119.3a56.327 56.327 0 0 1 0 14.2z"/></svg>