<svg xmlns="http://www.w3.org/2000/svg" xml:space="preserve" width="655.359" height="655.359" style="shape-rendering:geometricPrecision;text-rendering:geometricPrecision;image-rendering:optimizeQuality;fill-rule:evenodd;clip-rule:evenodd" viewBox="0 0 6.827 6.827"><defs><style>.fil3{fill:#202020}</style></defs><g id="Layer_x0020_1"><path d="M3.413.853a2.56 2.56 0 1 1 0 5.12 2.56 2.56 0 0 1 0-5.12z" style="fill:#7e7e7e"/><path d="M3.413 1.192c.614 0 1.17.248 1.571.65.402.402.651.958.651 1.571 0 .614-.249 1.17-.65 1.571-.403.402-.958.651-1.572.651a2.215 2.215 0 0 1-1.57-.65 2.215 2.215 0 0 1-.651-1.572c0-.613.248-1.169.65-1.57.402-.403.958-.651 1.571-.651z" style="fill:#d4d4d4"/><path d="M4.871 1.955a2.055 2.055 0 0 0-1.458-.603c-.569 0-1.084.23-1.458.603a2.055 2.055 0 0 0-.603 1.458c0 .57.23 1.085.603 1.458.374.373.889.604 1.458.604.57 0 1.085-.23 1.458-.604.373-.373.604-.888.604-1.458 0-.569-.23-1.084-.604-1.458z" style="fill:#f0f0f0"/><path class="fil3" d="M2.48 1.796a.08.08 0 1 1 .08.138.08.08 0 0 1-.08-.138zM1.796 2.48a.08.08 0 1 1 .138.08.08.08 0 0 1-.138-.08zM1.546 3.413a.08.08 0 1 1 .16 0 .08.08 0 0 1-.16 0zM1.796 4.347a.08.08 0 1 1 .138-.08.08.08 0 0 1-.138.08zM2.48 5.03a.08.08 0 1 1 .08-.138.08.08 0 0 1-.08.139zM3.413 5.281a.08.08 0 1 1 0-.16.08.08 0 0 1 0 .16zM4.347 5.03a.08.08 0 1 1-.08-.138.08.08 0 0 1 .08.139zM5.03 4.347a.08.08 0 1 1-.138-.08.08.08 0 0 1 .139.08zM5.281 3.413a.08.08 0 1 1-.16 0 .08.08 0 0 1 .16 0zM5.03 2.48a.08.08 0 1 1-.138.08.08.08 0 0 1 .139-.08zM4.347 1.796a.08.08 0 1 1-.08.138.08.08 0 0 1 .08-.138zM3.413 1.546a.08.08 0 1 1 0 .16.08.08 0 0 1 0-.16zM3.613 3.339l1.294.074-1.294.075a.213.213 0 1 1-.273-.275l.073-1.08.074 1.08a.214.214 0 0 1 .126.126z"/></g><path style="fill:none" d="M0 0h6.827v6.827H0z"/></svg>