<?xml version="1.0" standalone="no"?>
<!DOCTYPE svg PUBLIC "-//W3C//DTD SVG 20010904//EN"
 "http://www.w3.org/TR/2001/REC-SVG-20010904/DTD/svg10.dtd">
<svg version="1.0" xmlns="http://www.w3.org/2000/svg"
 width="548.000000pt" height="300.000000pt" viewBox="0 0 548.000000 300.000000"
 preserveAspectRatio="xMidYMid meet">

<g transform="translate(0.000000,300.000000) scale(0.100000,-0.100000)"
fill="#0000EE" stroke="none">
<path d="M1050 2028 c-11 -18 -20 -36 -20 -41 0 -4 30 -61 66 -127 l67 -120
272 0 273 0 75 138 c41 75 80 147 86 160 l12 22 -406 0 -405 0 -20 -32z"/>
<path d="M1887 2028 c-9 -18 -62 -118 -118 -223 l-102 -190 27 -50 c15 -27 59
-110 98 -182 38 -73 71 -133 73 -133 7 0 385 710 385 722 0 5 -9 27 -20 48
l-20 40 -153 0 -152 0 -18 -32z"/>
<path d="M1180 1715 c0 -4 37 -74 81 -158 45 -84 121 -226 169 -317 48 -91
106 -200 129 -242 l43 -78 48 0 48 0 35 63 c19 34 54 100 78 146 l44 83 -48
92 c-27 50 -87 164 -135 253 l-87 163 -202 0 c-112 0 -203 -2 -203 -5z"/>
<path d="M2320 1711 c0 -5 72 -177 161 -383 89 -205 163 -379 166 -385 4 -9
33 -13 97 -13 l91 0 52 128 c28 70 99 242 157 382 58 140 106 261 106 268 0
10 -22 12 -92 10 l-93 -3 -47 -110 c-26 -60 -75 -181 -110 -267 -35 -87 -66
-158 -69 -158 -3 0 -53 120 -112 268 l-106 267 -100 3 c-58 1 -101 -1 -101 -7z"/>
<path d="M3827 1713 c-4 -3 -7 -181 -7 -395 l0 -388 95 0 95 0 0 395 0 395
-88 0 c-49 0 -92 -3 -95 -7z"/>
<path d="M3150 1648 c-13 -35 -25 -69 -27 -75 -4 -10 20 -13 101 -13 l106 0 0
-315 0 -315 95 0 95 0 2 313 3 312 123 3 122 3 0 74 0 75 -299 0 -298 0 -23
-62z"/>
</g>
</svg>
